<svg xmlns="http://www.w3.org/2000/svg" width="2337.202" height="1973.755" viewBox="0 0 2337.202 1973.755">
  <g id="Group_90" data-name="Group 90" transform="translate(417.499 0.026) rotate(19)" opacity="0.49">
    <path id="Path_49" data-name="Path 49" d="M2028.965,0s56.094,918.165-635.3,1054.486C922.01,1147.481,552.249,789.669,0,872.711" transform="translate(0 0)" fill="none" stroke="#707070" stroke-width="0.5" opacity="0.5"/>
    <path id="Path_50" data-name="Path 50" d="M2045,0c-.567.349,22.454,877.7-669.084,996.669C910.815,1076.678,540.071,724.382,0,807.547" transform="translate(0.355 69.572)" fill="none" stroke="#707070" stroke-width="0.531" opacity="0.519"/>
    <path id="Path_51" data-name="Path 51" d="M2061.031,0c-1.13.693-11.042,837.439-702.864,938.846C899.717,1006.047,527.9,659.1,0,742.383" transform="translate(0.707 139.148)" fill="none" stroke="#707070" stroke-width="0.563" opacity="0.538"/>
    <path id="Path_52" data-name="Path 52" d="M2077.066,0c-1.7,1.039-44.406,797.394-736.648,881.026C888.7,935.6,515.718,593.808,0,677.217" transform="translate(1.063 208.723)" fill="none" stroke="#707070" stroke-width="0.594" opacity="0.556"/>
    <path id="Path_53" data-name="Path 53" d="M2093.1,0c-2.263,1.385-77.65,757.59-770.429,823.206C877.768,865.343,503.543,528.518,0,612.053" transform="translate(1.415 278.298)" fill="none" stroke="#707070" stroke-width="0.625" opacity="0.575"/>
    <path id="Path_54" data-name="Path 54" d="M2109.136,0c-2.827,1.735-110.794,718.051-804.207,765.386C866.9,795.287,491.371,463.234,0,546.892" transform="translate(1.767 347.87)" fill="none" stroke="#707070" stroke-width="0.656" opacity="0.594"/>
    <path id="Path_55" data-name="Path 55" d="M2125.17,0c-3.4,2.081-143.862,678.8-837.991,707.566C856.074,725.433,479.193,397.947,0,481.726" transform="translate(2.122 417.446)" fill="none" stroke="#707070" stroke-width="0.688" opacity="0.613"/>
    <path id="Path_56" data-name="Path 56" d="M2141.205,0c-3.959,2.424-176.867,639.846-871.771,649.744C845.287,655.787,467.018,332.658,0,416.562" transform="translate(2.474 487.021)" fill="none" stroke="#707070" stroke-width="0.719" opacity="0.631"/>
    <path id="Path_57" data-name="Path 57" d="M2157.24,0c-4.523,2.774-209.844,601.225-905.552,591.927C834.521,586.353,454.842,267.374,0,351.4" transform="translate(2.827 556.593)" fill="none" stroke="#707070" stroke-width="0.75" opacity="0.65"/>
    <path id="Path_58" data-name="Path 58" d="M2173.275,0c-5.093,3.12-242.817,562.945-939.336,534.107C823.755,517.124,442.667,202.087,0,286.235" transform="translate(3.182 626.168)" fill="none" stroke="#707070" stroke-width="0.781" opacity="0.669"/>
    <path id="Path_59" data-name="Path 59" d="M2189.31,0c-5.656,3.466-275.815,525.022-973.117,476.284C812.974,448.1,430.492,136.8,0,221.071" transform="translate(3.534 695.743)" fill="none" stroke="#707070" stroke-width="0.813" opacity="0.688"/>
    <path id="Path_60" data-name="Path 60" d="M2205.344,0c-6.223,3.816-308.867,487.479-1006.9,418.467C802.164,379.289,418.317,71.513,0,155.908" transform="translate(3.886 765.316)" fill="none" stroke="#707070" stroke-width="0.844" opacity="0.706"/>
    <path id="Path_61" data-name="Path 61" d="M2221.379,0c-6.789,4.162-342.018,450.314-1040.682,360.647C791.295,310.67,406.139,6.226,0,90.744" transform="translate(4.241 834.891)" fill="none" stroke="#707070" stroke-width="0.875" opacity="0.725"/>
    <path id="Path_62" data-name="Path 62" d="M2237.414,0c-7.353,4.505-375.291,413.542-1074.462,302.824C780.361,242.24,393.964-59.064,0,25.577" transform="translate(4.594 904.466)" fill="none" stroke="#707070" stroke-width="0.906" opacity="0.744"/>
    <path id="Path_63" data-name="Path 63" d="M2253.446,54.613c-7.919,4.852-408.728,377.163-1108.243,245C769.337,228.6,381.789-69.739,0,15.026" transform="translate(4.949 919.429)" fill="none" stroke="#707070" stroke-width="0.938" opacity="0.762"/>
    <path id="Path_64" data-name="Path 64" d="M2269.484,119.912C2261,125.113,1827.119,461.09,1127.457,307.1,758.21,225.827,369.614-69.726,0,15.165" transform="translate(5.301 923.702)" fill="none" stroke="#707070" stroke-width="0.969" opacity="0.781"/>
    <path id="Path_65" data-name="Path 65" d="M2285.519,185.21c-9.052,5.547-476.231,305.58-1175.808,129.365C746.962,223.2,357.439-69.715,0,15.3" transform="translate(5.653 927.979)" fill="none" stroke="#707070" stroke-width="1" opacity="0.8"/>
  </g>
</svg>
